{
  "source": "C:\\Users\\Peter\\Desktop\\stuff\\MIUN\\quantitative_research\\video_compression\\videos\\BVI-HD\\BVI-HD_CDVL_videos\\ORIG\\BridgeRiver_1920x1080_30fps.mp4",
  "output": "C:\\Users\\Peter\\Desktop\\stuff\\MIUN\\quantitative_research\\video_compression\\compressed_videos\\BVI-HD\\hevc\\1\\BridgeRiver_1920x1080_30fps_hevc.mp4",
  "codec": "hevc",
  "ok": "Input #0, mov,mp4,m4a,3gp,3g2,mj2, from 'C:\\Users\\Peter\\Desktop\\stuff\\MIUN\\quantitative_research\\video_compression\\videos\\BVI-HD\\BVI-HD_CDVL_videos\\ORIG\\BridgeRiver_1920x1080_30fps.mp4':\n  Metadata:\n    major_brand     : isom\n    minor_version   : 512\n    compatible_brands: isomiso2avc1mp41\n    encoder         : Lavf54.28.101\n  Duration: 00:00:05.00, start: 0.000000, bitrate: 274913 kb/s\n  Stream #0:0[0x1](und): Video: h264 (High 4:4:4 Predictive) (avc1 / 0x31637661), yuv420p(progressive), 1920x1080, 274910 kb/s, 30 fps, 30 tbr, 30 tbn (default)\n    Metadata:\n      handler_name    : VideoHandler\n      vendor_id       : [0][0][0][0]\n[out#0/mp4 @ 0000029764e61700] Codec AVOption b:a (set bitrate (in bits/s)) has not been used for any stream. The most likely reason is either wrong type (e.g. a video option with no video streams) or that it is a private option of some decoder which was not actually used for any stream.\nStream mapping:\n  Stream #0:0 -> #0:0 (h264 (native) -> hevc (libx265))\nPress [q] to stop, [?] for help\n[libx265 @ 0000029765970180] Unknown option: \"aq-mode.\nx265 [info]: HEVC encoder version 4.1+190-8f11c33ac\nx265 [info]: build info [Windows][GCC 15.1.0][64 bit] 10bit\nx265 [info]: using cpu capabilities: MMX2 SSE2Fast LZCNT SSSE3 SSE4.2 AVX FMA3 BMI2 AVX2\nx265 [info]: Main 10 profile, Level-4 (Main tier)\nx265 [info]: Thread pool created using 12 threads\nx265 [info]: Slices                              : 1\nx265 [info]: frame threads / pool features       : 3 / wpp(17 rows)\nx265 [info]: Coding QT: max CU size, min CU size : 64 / 8\nx265 [info]: Residual QT: max TU size, max depth : 32 / 1 inter / 1 intra\nx265 [info]: ME / range / subpel / merge         : star / 57 / 3 / 3\nx265 [info]: Keyframe min / max / scenecut / bias  : 25 / 250 / 40 / 5.00 \nx265 [info]: Lookahead / bframes / badapt        : 25 / 4 / 2\nx265 [info]: b-pyramid / weightp / weightb       : 1 / 1 / 0\nx265 [info]: References / ref-limit  cu / depth  : 4 / on / on\nx265 [info]: AQ: mode / str / qg-size / cu-tree  : 2 / 1.0 / 32 / 1\nx265 [info]: Rate Control / qCompress            : ABR-1000 kbps / 0.60\nx265 [info]: VBV/HRD buffer / max-rate / init    : 1000 / 1000 / 0.750\nx265 [info]: tools: rect limit-modes rd=4 psy-rd=2.00 rdoq=2 psy-rdoq=1.00\nx265 [info]: tools: rskip mode=1 signhide tmvp strong-intra-smoothing lslices=4\nx265 [info]: tools: deblock sao dhdr10-info\nOutput #0, mp4, to 'C:\\Users\\Peter\\Desktop\\stuff\\MIUN\\quantitative_research\\video_compression\\compressed_videos\\BVI-HD\\hevc\\1\\BridgeRiver_1920x1080_30fps_hevc.mp4':\n  Metadata:\n    major_brand     : isom\n    minor_version   : 512\n    compatible_brands: isomiso2avc1mp41\n    encoder         : Lavf62.3.100\n  Stream #0:0(und): Video: hevc (hev1 / 0x31766568), yuv420p10le(tv, progressive), 1920x1080, q=2-31, 1000 kb/s, 30 fps, 15360 tbn (default)\n    Metadata:\n      encoder         : Lavc62.11.100 libx265\n      handler_name    : VideoHandler\n      vendor_id       : [0][0][0][0]\n    Side data:\n      cpb: bitrate max/min/avg: 1000000/0/1000000 buffer size: 1000000 vbv_delay: N/A\nframe=    0 fps=0.0 q=0.0 size=       0KiB time=N/A bitrate=N/A speed=N/A elapsed=0:00:00.51    \nframe=    0 fps=0.0 q=0.0 size=       0KiB time=N/A bitrate=N/A speed=N/A elapsed=0:00:01.09    \nframe=    0 fps=0.0 q=0.0 size=       0KiB time=N/A bitrate=N/A speed=N/A elapsed=0:00:01.60    \nframe=    0 fps=0.0 q=0.0 size=       0KiB time=N/A bitrate=N/A speed=N/A elapsed=0:00:02.11    \nframe=    0 fps=0.0 q=0.0 size=       0KiB time=N/A bitrate=N/A speed=N/A elapsed=0:00:02.63    \nframe=    0 fps=0.0 q=0.0 size=       0KiB time=N/A bitrate=N/A speed=N/A elapsed=0:00:03.19    \nframe=    0 fps=0.0 q=0.0 size=       0KiB time=N/A bitrate=N/A speed=N/A elapsed=0:00:03.71    \nframe=    0 fps=0.0 q=0.0 size=       0KiB time=N/A bitrate=N/A speed=N/A elapsed=0:00:04.24    \nframe=    0 fps=0.0 q=0.0 size=       0KiB time=N/A bitrate=N/A speed=N/A elapsed=0:00:04.75    \nframe=    0 fps=0.0 q=0.0 size=       0KiB time=N/A bitrate=N/A speed=N/A elapsed=0:00:05.27    \nframe=    1 fps=0.2 q=46.6 size=       0KiB time=-00:00:00.03 bitrate=N/A speed=N/A elapsed=0:00:05.79    \nframe=    1 fps=0.2 q=46.6 size=       0KiB time=-00:00:00.03 bitrate=N/A speed=N/A elapsed=0:00:06.32    \nframe=    2 fps=0.3 q=51.0 size=       0KiB time=00:00:00.00 bitrate=N/A speed=   0x elapsed=0:00:06.83    \nframe=    3 fps=0.4 q=51.0 size=       0KiB time=00:00:00.03 bitrate=  10.6kbits/s speed=0.00453x elapsed=0:00:07.35    \nframe=    4 fps=0.5 q=51.0 size=       0KiB time=00:00:00.06 bitrate=   5.3kbits/s speed=0.00846x elapsed=0:00:07.87    \nframe=    5 fps=0.6 q=51.0 size=       0KiB time=00:00:00.10 bitrate=   3.5kbits/s speed=0.0119x elapsed=0:00:08.38    \nframe=    6 fps=0.7 q=51.0 size=       0KiB time=00:00:00.13 bitrate=   2.6kbits/s speed=0.015x elapsed=0:00:08.90    \nframe=    6 fps=0.6 q=51.0 size=       0KiB time=00:00:00.13 bitrate=   2.6kbits/s speed=0.0142x elapsed=0:00:09.41    \nframe=    7 fps=0.7 q=47.8 size=       0KiB time=00:00:00.16 bitrate=   2.1kbits/s speed=0.0167x elapsed=0:00:09.95    \nframe=    8 fps=0.8 q=51.0 size=       0KiB time=00:00:00.20 bitrate=   1.8kbits/s speed=0.019x elapsed=0:00:10.50    \nframe=    8 fps=0.7 q=51.0 size=       0KiB time=00:00:00.20 bitrate=   1.8kbits/s speed=0.0181x elapsed=0:00:11.05    \nframe=    9 fps=0.8 q=51.0 size=       0KiB time=00:00:00.23 bitrate=   1.5kbits/s speed=0.0202x elapsed=0:00:11.57    \nframe=   10 fps=0.8 q=51.0 size=       0KiB time=00:00:00.26 bitrate=   1.3kbits/s speed=0.022x elapsed=0:00:12.10    \nframe=   10 fps=0.8 q=51.0 size=       0KiB time=00:00:00.26 bitrate=   1.3kbits/s speed=0.0211x elapsed=0:00:12.62    \nframe=   10 fps=0.8 q=51.0 size=       0KiB time=00:00:00.26 bitrate=   1.3kbits/s speed=0.0203x elapsed=0:00:13.15    \nframe=   11 fps=0.8 q=50.9 size=       0KiB time=00:00:00.30 bitrate=   1.2kbits/s speed=0.0219x elapsed=0:00:13.68    \nframe=   11 fps=0.8 q=50.9 size=       0KiB time=00:00:00.30 bitrate=   1.2kbits/s speed=0.0211x elapsed=0:00:14.20    \nframe=   11 fps=0.7 q=50.9 size=       0KiB time=00:00:00.30 bitrate=   1.2kbits/s speed=0.0204x elapsed=0:00:14.73    \nframe=   11 fps=0.7 q=50.9 size=       0KiB time=00:00:00.30 bitrate=   1.2kbits/s speed=0.0197x elapsed=0:00:15.24    \nframe=   12 fps=0.8 q=45.0 size=       0KiB time=00:00:00.33 bitrate=   1.1kbits/s speed=0.0212x elapsed=0:00:15.75    \nframe=   13 fps=0.8 q=50.1 size=       0KiB time=00:00:00.36 bitrate=   1.0kbits/s speed=0.0225x elapsed=0:00:16.28    \nframe=   14 fps=0.8 q=50.1 size=       0KiB time=00:00:00.40 bitrate=   0.9kbits/s speed=0.0238x elapsed=0:00:16.83    \nframe=   15 fps=0.9 q=50.2 size=       0KiB time=00:00:00.43 bitrate=   0.8kbits/s speed=0.025x elapsed=0:00:17.35    \nframe=   15 fps=0.8 q=50.2 size=       0KiB time=00:00:00.43 bitrate=   0.8kbits/s speed=0.0242x elapsed=0:00:17.90    \nframe=   15 fps=0.8 q=50.2 size=       0KiB time=00:00:00.43 bitrate=   0.8kbits/s speed=0.0235x elapsed=0:00:18.42    \nframe=   16 fps=0.8 q=49.9 size=       0KiB time=00:00:00.46 bitrate=   0.8kbits/s speed=0.0246x elapsed=0:00:18.99    \nframe=   16 fps=0.8 q=49.9 size=       0KiB time=00:00:00.46 bitrate=   0.8kbits/s speed=0.0239x elapsed=0:00:19.50    \nframe=   16 fps=0.8 q=49.9 size=       0KiB time=00:00:00.46 bitrate=   0.8kbits/s speed=0.0233x elapsed=0:00:20.04    \nframe=   17 fps=0.8 q=44.4 size=       0KiB time=00:00:00.50 bitrate=   0.7kbits/s speed=0.0243x elapsed=0:00:20.57    \nframe=   18 fps=0.9 q=48.9 size=       0KiB time=00:00:00.53 bitrate=   0.7kbits/s speed=0.0253x elapsed=0:00:21.11    \nframe=   18 fps=0.8 q=48.9 size=       0KiB time=00:00:00.53 bitrate=   0.7kbits/s speed=0.0246x elapsed=0:00:21.66    \nframe=   18 fps=0.8 q=48.9 size=       0KiB time=00:00:00.53 bitrate=   0.7kbits/s speed=0.0239x elapsed=0:00:22.32    \nframe=   18 fps=0.8 q=48.9 size=       0KiB time=00:00:00.53 bitrate=   0.7kbits/s speed=0.0233x elapsed=0:00:22.88    \nframe=   18 fps=0.8 q=48.9 size=       0KiB time=00:00:00.53 bitrate=   0.7kbits/s speed=0.0228x elapsed=0:00:23.40    \nframe=   19 fps=0.8 q=50.1 size=       0KiB time=00:00:00.56 bitrate=   0.6kbits/s speed=0.0236x elapsed=0:00:23.98    \nframe=   19 fps=0.8 q=50.1 size=       0KiB time=00:00:00.56 bitrate=   0.6kbits/s speed=0.0231x elapsed=0:00:24.49    \nframe=   20 fps=0.8 q=50.0 size=       0KiB time=00:00:00.60 bitrate=   0.6kbits/s speed=0.024x elapsed=0:00:25.03    \nframe=   20 fps=0.8 q=50.0 size=       0KiB time=00:00:00.60 bitrate=   0.6kbits/s speed=0.0235x elapsed=0:00:25.53    \nframe=   20 fps=0.8 q=50.0 size=       0KiB time=00:00:00.60 bitrate=   0.6kbits/s speed=0.023x elapsed=0:00:26.06    \nframe=   20 fps=0.8 q=50.0 size=       0KiB time=00:00:00.60 bitrate=   0.6kbits/s speed=0.0226x elapsed=0:00:26.58    \nframe=   21 fps=0.8 q=49.9 size=       0KiB time=00:00:00.63 bitrate=   0.6kbits/s speed=0.0234x elapsed=0:00:27.11    \nframe=   21 fps=0.8 q=49.9 size=       0KiB time=00:00:00.63 bitrate=   0.6kbits/s speed=0.0229x elapsed=0:00:27.69    \nframe=   21 fps=0.7 q=49.9 size=       0KiB time=00:00:00.63 bitrate=   0.6kbits/s speed=0.0224x elapsed=0:00:28.31    \nframe=   21 fps=0.7 q=49.9 size=       0KiB time=00:00:00.63 bitrate=   0.6kbits/s speed=0.0219x elapsed=0:00:28.85    \nframe=   21 fps=0.7 q=49.9 size=       0KiB time=00:00:00.63 bitrate=   0.6kbits/s speed=0.0216x elapsed=0:00:29.37    \nframe=   22 fps=0.7 q=46.0 size=       0KiB time=00:00:00.66 bitrate=   0.5kbits/s speed=0.0223x elapsed=0:00:29.90    \nframe=   23 fps=0.8 q=48.6 size=       0KiB time=00:00:00.70 bitrate=   0.5kbits/s speed=0.023x elapsed=0:00:30.44    \nframe=   23 fps=0.7 q=48.6 size=       0KiB time=00:00:00.70 bitrate=   0.5kbits/s speed=0.0226x elapsed=0:00:30.98    \nframe=   23 fps=0.7 q=48.6 size=       0KiB time=00:00:00.70 bitrate=   0.5kbits/s speed=0.0222x elapsed=0:00:31.51    \nframe=   24 fps=0.7 q=50.1 size=       0KiB time=00:00:00.73 bitrate=   0.5kbits/s speed=0.0229x elapsed=0:00:32.05    \nframe=   24 fps=0.7 q=50.1 size=       0KiB time=00:00:00.73 bitrate=   0.5kbits/s speed=0.0225x elapsed=0:00:32.57    \nframe=   24 fps=0.7 q=50.1 size=       0KiB time=00:00:00.73 bitrate=   0.5kbits/s speed=0.0221x elapsed=0:00:33.12    \nframe=   24 fps=0.7 q=50.1 size=       0KiB time=00:00:00.73 bitrate=   0.5kbits/s speed=0.0218x elapsed=0:00:33.67    \nframe=   25 fps=0.7 q=50.1 size=       0KiB time=00:00:00.76 bitrate=   0.5kbits/s speed=0.0224x elapsed=0:00:34.18    \nframe=   25 fps=0.7 q=50.1 size=       0KiB time=00:00:00.76 bitrate=   0.5kbits/s speed=0.0221x elapsed=0:00:34.72    \nframe=   25 fps=0.7 q=50.1 size=       0KiB time=00:00:00.76 bitrate=   0.5kbits/s speed=0.0217x elapsed=0:00:35.29    \nframe=   25 fps=0.7 q=50.1 size=       0KiB time=00:00:00.76 bitrate=   0.5kbits/s speed=0.0214x elapsed=0:00:35.87    \nframe=   25 fps=0.7 q=50.1 size=       0KiB time=00:00:00.76 bitrate=   0.5kbits/s speed=0.021x elapsed=0:00:36.42    \nframe=   25 fps=0.7 q=50.1 size=       0KiB time=00:00:00.76 bitrate=   0.5kbits/s speed=0.0207x elapsed=0:00:37.00    \nframe=   25 fps=0.7 q=50.1 size=       0KiB time=00:00:00.76 bitrate=   0.5kbits/s speed=0.0204x elapsed=0:00:37.56    \nframe=   25 fps=0.7 q=50.1 size=       0KiB time=00:00:00.76 bitrate=   0.5kbits/s speed=0.0201x elapsed=0:00:38.17    \nframe=   26 fps=0.7 q=45.0 size=       0KiB time=00:00:00.80 bitrate=   0.4kbits/s speed=0.0206x elapsed=0:00:38.74    \nframe=   26 fps=0.7 q=45.0 size=       0KiB time=00:00:00.80 bitrate=   0.4kbits/s speed=0.0204x elapsed=0:00:39.28    \nframe=   27 fps=0.7 q=48.6 size=       0KiB time=00:00:00.83 bitrate=   0.4kbits/s speed=0.0209x elapsed=0:00:39.78    \nframe=   27 fps=0.7 q=48.6 size=       0KiB time=00:00:00.83 bitrate=   0.4kbits/s speed=0.0207x elapsed=0:00:40.31    \nframe=   28 fps=0.7 q=50.0 size=       0KiB time=00:00:00.86 bitrate=   0.4kbits/s speed=0.0212x elapsed=0:00:40.87    \nframe=   28 fps=0.7 q=50.0 size=       0KiB time=00:00:00.86 bitrate=   0.4kbits/s speed=0.0209x elapsed=0:00:41.39    \nframe=   28 fps=0.7 q=50.0 size=       0KiB time=00:00:00.86 bitrate=   0.4kbits/s speed=0.0207x elapsed=0:00:41.89    \nframe=   29 fps=0.7 q=50.1 size=       0KiB time=00:00:00.90 bitrate=   0.4kbits/s speed=0.0212x elapsed=0:00:42.42    \nframe=   30 fps=0.7 q=49.9 size=       0KiB time=00:00:00.93 bitrate=   0.4kbits/s speed=0.0217x elapsed=0:00:42.94    \nframe=   30 fps=0.7 q=49.9 size=       0KiB time=00:00:00.93 bitrate=   0.4kbits/s speed=0.0215x elapsed=0:00:43.45    \nframe=   31 fps=0.7 q=45.6 size=       0KiB time=00:00:00.96 bitrate=   0.4kbits/s speed=0.022x elapsed=0:00:43.99    \nframe=   31 fps=0.7 q=45.6 size=       0KiB time=00:00:00.96 bitrate=   0.4kbits/s speed=0.0217x elapsed=0:00:44.57    \nframe=   31 fps=0.7 q=45.6 size=       0KiB time=00:00:00.96 bitrate=   0.4kbits/s speed=0.0214x elapsed=0:00:45.09    \nframe=   32 fps=0.7 q=47.6 size=       0KiB time=00:00:01.00 bitrate=   0.4kbits/s speed=0.0219x elapsed=0:00:45.60    \nframe=   33 fps=0.7 q=50.0 size=       0KiB time=00:00:01.03 bitrate=   0.3kbits/s speed=0.0224x elapsed=0:00:46.12    \nframe=   33 fps=0.7 q=50.0 size=       0KiB time=00:00:01.03 bitrate=   0.3kbits/s speed=0.0222x elapsed=0:00:46.63    \nframe=   34 fps=0.7 q=50.0 size=       0KiB time=00:00:01.06 bitrate=   0.3kbits/s speed=0.0226x elapsed=0:00:47.14    \nframe=   34 fps=0.7 q=50.0 size=       0KiB time=00:00:01.06 bitrate=   0.3kbits/s speed=0.0224x elapsed=0:00:47.66    \nframe=   34 fps=0.7 q=50.0 size=       0KiB time=00:00:01.06 bitrate=   0.3kbits/s speed=0.0221x elapsed=0:00:48.19    \nframe=   35 fps=0.7 q=49.9 size=       0KiB time=00:00:01.10 bitrate=   0.3kbits/s speed=0.0226x elapsed=0:00:48.73    \nframe=   36 fps=0.7 q=45.8 size=       0KiB time=00:00:01.13 bitrate=   0.3kbits/s speed=0.023x elapsed=0:00:49.26    \nframe=   37 fps=0.7 q=48.5 size=       0KiB time=00:00:01.16 bitrate=   0.3kbits/s speed=0.0234x elapsed=0:00:49.78    \nframe=   38 fps=0.8 q=50.0 size=       0KiB time=00:00:01.20 bitrate=   0.3kbits/s speed=0.0238x elapsed=0:00:50.32    \nframe=   38 fps=0.7 q=50.0 size=       0KiB time=00:00:01.20 bitrate=   0.3kbits/s speed=0.0236x elapsed=0:00:50.87    \nframe=   39 fps=0.8 q=50.0 size=       0KiB time=00:00:01.23 bitrate=   0.3kbits/s speed=0.024x elapsed=0:00:51.41    \nframe=   40 fps=0.8 q=50.0 size=       0KiB time=00:00:01.26 bitrate=   0.3kbits/s speed=0.0244x elapsed=0:00:51.93    \nframe=   40 fps=0.8 q=50.0 size=       0KiB time=00:00:01.26 bitrate=   0.3kbits/s speed=0.0241x elapsed=0:00:52.46    \nframe=   40 fps=0.8 q=50.0 size=       0KiB time=00:00:01.26 bitrate=   0.3kbits/s speed=0.0239x elapsed=0:00:52.98    \nframe=   41 fps=0.8 q=45.0 size=       0KiB time=00:00:01.30 bitrate=   0.3kbits/s speed=0.0243x elapsed=0:00:53.51    \nframe=   42 fps=0.8 q=48.8 size=       0KiB time=00:00:01.33 bitrate=   0.3kbits/s speed=0.0247x elapsed=0:00:54.06    \nframe=   42 fps=0.8 q=48.8 size=       0KiB time=00:00:01.33 bitrate=   0.3kbits/s speed=0.0244x elapsed=0:00:54.59    \nframe=   42 fps=0.8 q=48.8 size=       0KiB time=00:00:01.33 bitrate=   0.3kbits/s speed=0.0242x elapsed=0:00:55.11    \nframe=   43 fps=0.8 q=50.1 size=       0KiB time=00:00:01.36 bitrate=   0.3kbits/s speed=0.0246x elapsed=0:00:55.65    \nframe=   44 fps=0.8 q=50.0 size=       0KiB time=00:00:01.40 bitrate=   0.3kbits/s speed=0.0249x elapsed=0:00:56.16    \nframe=   44 fps=0.8 q=50.0 size=       0KiB time=00:00:01.40 bitrate=   0.3kbits/s speed=0.0247x elapsed=0:00:56.68    \nframe=   45 fps=0.8 q=49.9 size=       0KiB time=00:00:01.43 bitrate=   0.2kbits/s speed=0.0251x elapsed=0:00:57.20    \nframe=   45 fps=0.8 q=49.9 size=       0KiB time=00:00:01.43 bitrate=   0.2kbits/s speed=0.0248x elapsed=0:00:57.72    \nframe=   46 fps=0.8 q=44.7 size=       0KiB time=00:00:01.46 bitrate=   0.2kbits/s speed=0.0252x elapsed=0:00:58.25    \nframe=   47 fps=0.8 q=48.9 size=       0KiB time=00:00:01.50 bitrate=   0.2kbits/s speed=0.0255x elapsed=0:00:58.80    \nframe=   48 fps=0.8 q=50.0 size=       0KiB time=00:00:01.53 bitrate=   0.2kbits/s speed=0.0258x elapsed=0:00:59.33    \nframe=   48 fps=0.8 q=50.0 size=       0KiB time=00:00:01.53 bitrate=   0.2kbits/s speed=0.0256x elapsed=0:00:59.86    \nframe=   48 fps=0.8 q=50.0 size=       0KiB time=00:00:01.53 bitrate=   0.2kbits/s speed=0.0254x elapsed=0:01:00.38    \nframe=   49 fps=0.8 q=50.0 size=       0KiB time=00:00:01.56 bitrate=   0.2kbits/s speed=0.0257x elapsed=0:01:00.92    \nframe=   49 fps=0.8 q=50.0 size=       0KiB time=00:00:01.56 bitrate=   0.2kbits/s speed=0.0255x elapsed=0:01:01.44    \nframe=   49 fps=0.8 q=50.0 size=       0KiB time=00:00:01.56 bitrate=   0.2kbits/s speed=0.0253x elapsed=0:01:01.96    \nframe=   50 fps=0.8 q=49.9 size=       0KiB time=00:00:01.60 bitrate=   0.2kbits/s speed=0.0256x elapsed=0:01:02.49    \nframe=   51 fps=0.8 q=45.2 size=       0KiB time=00:00:01.63 bitrate=   0.2kbits/s speed=0.0259x elapsed=0:01:03.02    \nframe=   51 fps=0.8 q=45.2 size=       0KiB time=00:00:01.63 bitrate=   0.2kbits/s speed=0.0257x elapsed=0:01:03.54    \nframe=   52 fps=0.8 q=48.9 size=       0KiB time=00:00:01.66 bitrate=   0.2kbits/s speed=0.026x elapsed=0:01:04.05    \nframe=   52 fps=0.8 q=48.9 size=       0KiB time=00:00:01.66 bitrate=   0.2kbits/s speed=0.0258x elapsed=0:01:04.58    \nframe=   52 fps=0.8 q=48.9 size=       0KiB time=00:00:01.66 bitrate=   0.2kbits/s speed=0.0256x elapsed=0:01:05.13    \nframe=   52 fps=0.8 q=48.9 size=       0KiB time=00:00:01.66 bitrate=   0.2kbits/s speed=0.0254x elapsed=0:01:05.66    \nframe=   52 fps=0.8 q=48.9 size=       0KiB time=00:00:01.66 bitrate=   0.2kbits/s speed=0.0252x elapsed=0:01:06.18    \nframe=   53 fps=0.8 q=50.0 size=       0KiB time=00:00:01.70 bitrate=   0.2kbits/s speed=0.0255x elapsed=0:01:06.70    \nframe=   54 fps=0.8 q=49.9 size=       0KiB time=00:00:01.73 bitrate=   0.2kbits/s speed=0.0258x elapsed=0:01:07.21    \nframe=   55 fps=0.8 q=49.1 size=       0KiB time=00:00:01.76 bitrate=   0.2kbits/s speed=0.0261x elapsed=0:01:07.73    \nframe=   56 fps=0.8 q=45.2 size=       0KiB time=00:00:01.80 bitrate=   0.2kbits/s speed=0.0264x elapsed=0:01:08.24    \nframe=   56 fps=0.8 q=45.2 size=       0KiB time=00:00:01.80 bitrate=   0.2kbits/s speed=0.0262x elapsed=0:01:08.77    \nframe=   57 fps=0.8 q=48.8 size=       0KiB time=00:00:01.83 bitrate=   0.2kbits/s speed=0.0265x elapsed=0:01:09.30    \nframe=   57 fps=0.8 q=48.8 size=       0KiB time=00:00:01.83 bitrate=   0.2kbits/s speed=0.0262x elapsed=0:01:09.85    \nframe=   58 fps=0.8 q=49.9 size=       0KiB time=00:00:01.86 bitrate=   0.2kbits/s speed=0.0265x elapsed=0:01:10.37    \nframe=   59 fps=0.8 q=49.3 size=       0KiB time=00:00:01.90 bitrate=   0.2kbits/s speed=0.0268x elapsed=0:01:10.89    \nframe=   60 fps=0.8 q=49.1 size=       0KiB time=00:00:01.93 bitrate=   0.2kbits/s speed=0.0271x elapsed=0:01:11.39    \nframe=   60 fps=0.8 q=49.1 size=       0KiB time=00:00:01.93 bitrate=   0.2kbits/s speed=0.0269x elapsed=0:01:11.92    \nframe=   60 fps=0.8 q=49.1 size=       0KiB time=00:00:01.93 bitrate=   0.2kbits/s speed=0.0267x elapsed=0:01:12.42    \nframe=   61 fps=0.8 q=44.8 size=       0KiB time=00:00:01.96 bitrate=   0.2kbits/s speed=0.027x elapsed=0:01:12.94    \nframe=   61 fps=0.8 q=44.8 size=       0KiB time=00:00:01.96 bitrate=   0.2kbits/s speed=0.0268x elapsed=0:01:13.47    \nframe=   62 fps=0.8 q=48.9 size=       0KiB time=00:00:02.00 bitrate=   0.2kbits/s speed=0.027x elapsed=0:01:14.00    \nframe=   62 fps=0.8 q=48.9 size=       0KiB time=00:00:02.00 bitrate=   0.2kbits/s speed=0.0268x elapsed=0:01:14.56    \nframe=   64 fps=0.9 q=49.9 size=       0KiB time=00:00:02.06 bitrate=   0.2kbits/s speed=0.0275x elapsed=0:01:15.08    \nframe=   65 fps=0.9 q=49.9 size=       0KiB time=00:00:02.10 bitrate=   0.2kbits/s speed=0.0278x elapsed=0:01:15.58    \nframe=   65 fps=0.9 q=49.9 size=       0KiB time=00:00:02.10 bitrate=   0.2kbits/s speed=0.0276x elapsed=0:01:16.10    \nframe=   65 fps=0.8 q=49.9 size=       0KiB time=00:00:02.10 bitrate=   0.2kbits/s speed=0.0274x elapsed=0:01:16.63    \nframe=   65 fps=0.8 q=49.9 size=       0KiB time=00:00:02.10 bitrate=   0.2kbits/s speed=0.0272x elapsed=0:01:17.19    \nframe=   65 fps=0.8 q=49.9 size=       0KiB time=00:00:02.10 bitrate=   0.2kbits/s speed=0.027x elapsed=0:01:17.72    \nframe=   65 fps=0.8 q=49.9 size=       0KiB time=00:00:02.10 bitrate=   0.2kbits/s speed=0.0268x elapsed=0:01:18.28    \nframe=   65 fps=0.8 q=49.9 size=       0KiB time=00:00:02.10 bitrate=   0.2kbits/s speed=0.0266x elapsed=0:01:19.00    \nframe=   65 fps=0.8 q=49.9 size=       0KiB time=00:00:02.10 bitrate=   0.2kbits/s speed=0.0264x elapsed=0:01:19.58    \nframe=   66 fps=0.8 q=45.6 size=       0KiB time=00:00:02.13 bitrate=   0.2kbits/s speed=0.0266x elapsed=0:01:20.13    \nframe=   66 fps=0.8 q=45.6 size=       0KiB time=00:00:02.13 bitrate=   0.2kbits/s speed=0.0264x elapsed=0:01:20.69    \nframe=   66 fps=0.8 q=45.6 size=       0KiB time=00:00:02.13 bitrate=   0.2kbits/s speed=0.0263x elapsed=0:01:21.20    \nframe=   66 fps=0.8 q=45.6 size=       0KiB time=00:00:02.13 bitrate=   0.2kbits/s speed=0.0261x elapsed=0:01:21.72    \nframe=   67 fps=0.8 q=48.8 size=     256KiB time=00:00:02.16 bitrate= 968.1kbits/s speed=0.0263x elapsed=0:01:22.24    \nframe=   68 fps=0.8 q=49.2 size=     256KiB time=00:00:02.20 bitrate= 953.4kbits/s speed=0.0266x elapsed=0:01:22.77    \nframe=   70 fps=0.8 q=49.1 size=     256KiB time=00:00:02.26 bitrate= 925.4kbits/s speed=0.0272x elapsed=0:01:23.30    \nframe=   70 fps=0.8 q=49.1 size=     256KiB time=00:00:02.26 bitrate= 925.4kbits/s speed=0.027x elapsed=0:01:23.83    \nframe=   70 fps=0.8 q=49.1 size=     256KiB time=00:00:02.26 bitrate= 925.4kbits/s speed=0.0269x elapsed=0:01:24.35    \nframe=   71 fps=0.8 q=45.9 size=     256KiB time=00:00:02.30 bitrate= 912.0kbits/s speed=0.0271x elapsed=0:01:24.89    \nframe=   71 fps=0.8 q=45.9 size=     256KiB time=00:00:02.30 bitrate= 912.0kbits/s speed=0.0269x elapsed=0:01:25.39    \nframe=   72 fps=0.8 q=48.4 size=     256KiB time=00:00:02.33 bitrate= 898.9kbits/s speed=0.0272x elapsed=0:01:25.92    \nframe=   72 fps=0.8 q=48.4 size=     256KiB time=00:00:02.33 bitrate= 898.9kbits/s speed=0.027x elapsed=0:01:26.44    \nframe=   74 fps=0.9 q=50.0 size=     256KiB time=00:00:02.40 bitrate= 874.0kbits/s speed=0.0276x elapsed=0:01:26.97    \nframe=   74 fps=0.8 q=50.0 size=     256KiB time=00:00:02.40 bitrate= 874.0kbits/s speed=0.0274x elapsed=0:01:27.49    \nframe=   74 fps=0.8 q=50.0 size=     256KiB time=00:00:02.40 bitrate= 874.0kbits/s speed=0.0273x elapsed=0:01:28.01    \nframe=   75 fps=0.8 q=44.8 size=     256KiB time=00:00:02.43 bitrate= 862.0kbits/s speed=0.0275x elapsed=0:01:28.52    \nframe=   75 fps=0.8 q=44.8 size=     256KiB time=00:00:02.43 bitrate= 862.0kbits/s speed=0.0273x elapsed=0:01:29.04    \nframe=   76 fps=0.8 q=47.9 size=     256KiB time=00:00:02.46 bitrate= 850.3kbits/s speed=0.0275x elapsed=0:01:29.56    \nframe=   76 fps=0.8 q=47.9 size=     256KiB time=00:00:02.46 bitrate= 850.3kbits/s speed=0.0274x elapsed=0:01:30.08    \nframe=   77 fps=0.8 q=49.3 size=     256KiB time=00:00:02.50 bitrate= 839.0kbits/s speed=0.0276x elapsed=0:01:30.60    \nframe=   79 fps=0.9 q=50.0 size=     256KiB time=00:00:02.56 bitrate= 817.2kbits/s speed=0.0282x elapsed=0:01:31.13    \nframe=   79 fps=0.9 q=50.0 size=     256KiB time=00:00:02.56 bitrate= 817.2kbits/s speed=0.028x elapsed=0:01:31.69    \nframe=   79 fps=0.9 q=50.0 size=     256KiB time=00:00:02.56 bitrate= 817.2kbits/s speed=0.0278x elapsed=0:01:32.22    \nframe=   79 fps=0.9 q=50.0 size=     256KiB time=00:00:02.56 bitrate= 817.2kbits/s speed=0.0277x elapsed=0:01:32.74    \nframe=   79 fps=0.8 q=50.0 size=     256KiB time=00:00:02.56 bitrate= 817.2kbits/s speed=0.0275x elapsed=0:01:33.26    \nframe=   80 fps=0.9 q=45.8 size=     256KiB time=00:00:02.60 bitrate= 806.7kbits/s speed=0.0277x elapsed=0:01:33.78    \nframe=   80 fps=0.8 q=45.8 size=     256KiB time=00:00:02.60 bitrate= 806.7kbits/s speed=0.0276x elapsed=0:01:34.31    \nframe=   80 fps=0.8 q=45.8 size=     256KiB time=00:00:02.60 bitrate= 806.7kbits/s speed=0.0274x elapsed=0:01:34.86    \nframe=   80 fps=0.8 q=45.8 size=     256KiB time=00:00:02.60 bitrate= 806.7kbits/s speed=0.0273x elapsed=0:01:35.39    \nframe=   81 fps=0.8 q=47.3 size=     256KiB time=00:00:02.63 bitrate= 796.5kbits/s speed=0.0275x elapsed=0:01:35.92    \nframe=   81 fps=0.8 q=47.3 size=     256KiB time=00:00:02.63 bitrate= 796.5kbits/s speed=0.0273x elapsed=0:01:36.47    \nframe=   84 fps=0.9 q=50.2 size=     256KiB time=00:00:02.73 bitrate= 767.4kbits/s speed=0.0282x elapsed=0:01:36.99    \nframe=   84 fps=0.9 q=50.2 size=     256KiB time=00:00:02.73 bitrate= 767.4kbits/s speed=0.028x elapsed=0:01:37.56    \nframe=   84 fps=0.9 q=50.2 size=     256KiB time=00:00:02.73 bitrate= 767.4kbits/s speed=0.0279x elapsed=0:01:38.08    \nframe=   84 fps=0.9 q=50.2 size=     256KiB time=00:00:02.73 bitrate= 767.4kbits/s speed=0.0277x elapsed=0:01:38.62    \nframe=   85 fps=0.9 q=46.0 size=     256KiB time=00:00:02.73 bitrate= 767.4kbits/s speed=0.0276x elapsed=0:01:39.15    \nframe=   85 fps=0.9 q=46.0 size=     256KiB time=00:00:02.76 bitrate= 758.1kbits/s speed=0.0278x elapsed=0:01:39.69    \nframe=   85 fps=0.8 q=46.0 size=     256KiB time=00:00:02.76 bitrate= 758.1kbits/s speed=0.0276x elapsed=0:01:40.21    \nframe=   86 fps=0.9 q=48.6 size=     256KiB time=00:00:02.80 bitrate= 749.1kbits/s speed=0.0278x elapsed=0:01:40.73    \nframe=   86 fps=0.8 q=48.6 size=     256KiB time=00:00:02.80 bitrate= 749.1kbits/s speed=0.0277x elapsed=0:01:41.26    \nframe=   87 fps=0.9 q=50.0 size=     256KiB time=00:00:02.83 bitrate= 740.3kbits/s speed=0.0278x elapsed=0:01:41.81    \nframe=   88 fps=0.9 q=50.0 size=     256KiB time=00:00:02.86 bitrate= 731.7kbits/s speed=0.028x elapsed=0:01:42.32    \nframe=   88 fps=0.9 q=50.0 size=     256KiB time=00:00:02.86 bitrate= 731.7kbits/s speed=0.0279x elapsed=0:01:42.85    \nframe=   88 fps=0.9 q=50.0 size=     256KiB time=00:00:02.86 bitrate= 731.7kbits/s speed=0.0277x elapsed=0:01:43.37    \nframe=   89 fps=0.9 q=45.4 size=     256KiB time=00:00:02.90 bitrate= 723.3kbits/s speed=0.0279x elapsed=0:01:43.88    \nframe=   89 fps=0.9 q=45.4 size=     256KiB time=00:00:02.90 bitrate= 723.3kbits/s speed=0.0278x elapsed=0:01:44.40    \nframe=   89 fps=0.8 q=45.4 size=     256KiB time=00:00:02.90 bitrate= 723.3kbits/s speed=0.0276x elapsed=0:01:44.92    \nframe=   89 fps=0.8 q=45.4 size=     256KiB time=00:00:02.90 bitrate= 723.3kbits/s speed=0.0275x elapsed=0:01:45.45    \nframe=   90 fps=0.8 q=48.5 size=     256KiB time=00:00:02.93 bitrate= 715.1kbits/s speed=0.0277x elapsed=0:01:45.96    \nframe=   90 fps=0.8 q=48.5 size=     256KiB time=00:00:02.93 bitrate= 715.1kbits/s speed=0.0275x elapsed=0:01:46.48    \nframe=   92 fps=0.9 q=50.0 size=     256KiB time=00:00:03.00 bitrate= 699.2kbits/s speed=0.028x elapsed=0:01:47.00    \nframe=   93 fps=0.9 q=50.0 size=     256KiB time=00:00:03.03 bitrate= 691.5kbits/s speed=0.0282x elapsed=0:01:47.50    \nframe=   93 fps=0.9 q=50.0 size=     256KiB time=00:00:03.03 bitrate= 691.5kbits/s speed=0.0281x elapsed=0:01:48.03    \nframe=   93 fps=0.9 q=50.0 size=     256KiB time=00:00:03.03 bitrate= 691.5kbits/s speed=0.0279x elapsed=0:01:48.56    \nframe=   93 fps=0.9 q=50.0 size=     256KiB time=00:00:03.03 bitrate= 691.5kbits/s speed=0.0278x elapsed=0:01:49.08    \nframe=   94 fps=0.9 q=45.2 size=     256KiB time=00:00:03.06 bitrate= 684.0kbits/s speed=0.028x elapsed=0:01:49.60    \nframe=   94 fps=0.9 q=45.2 size=     256KiB time=00:00:03.06 bitrate= 684.0kbits/s speed=0.0278x elapsed=0:01:50.13    \nframe=   95 fps=0.9 q=48.6 size=     256KiB time=00:00:03.10 bitrate= 676.6kbits/s speed=0.028x elapsed=0:01:50.66    \nframe=   95 fps=0.9 q=48.6 size=     256KiB time=00:00:03.10 bitrate= 676.6kbits/s speed=0.0279x elapsed=0:01:51.18    \nframe=   95 fps=0.9 q=48.6 size=     256KiB time=00:00:03.10 bitrate= 676.6kbits/s speed=0.0277x elapsed=0:01:51.75    \nframe=   95 fps=0.8 q=48.6 size=     256KiB time=00:00:03.10 bitrate= 676.6kbits/s speed=0.0276x elapsed=0:01:52.32    \nframe=   95 fps=0.8 q=48.6 size=     256KiB time=00:00:03.10 bitrate= 676.6kbits/s speed=0.0275x elapsed=0:01:52.87    \nframe=   97 fps=0.9 q=50.0 size=     256KiB time=00:00:03.16 bitrate= 662.4kbits/s speed=0.0279x elapsed=0:01:53.38    \nframe=   98 fps=0.9 q=50.0 size=     256KiB time=00:00:03.20 bitrate= 655.5kbits/s speed=0.0281x elapsed=0:01:53.90    \nframe=   98 fps=0.9 q=50.0 size=     256KiB time=00:00:03.20 bitrate= 655.5kbits/s speed=0.028x elapsed=0:01:54.42    \nframe=   99 fps=0.9 q=45.8 size=     256KiB time=00:00:03.23 bitrate= 648.7kbits/s speed=0.0281x elapsed=0:01:54.95    \nframe=   99 fps=0.9 q=45.8 size=     256KiB time=00:00:03.23 bitrate= 648.7kbits/s speed=0.028x elapsed=0:01:55.47    \nframe=   99 fps=0.9 q=45.8 size=     256KiB time=00:00:03.23 bitrate= 648.7kbits/s speed=0.0279x elapsed=0:01:56.00    \nframe=  100 fps=0.9 q=47.9 size=     256KiB time=00:00:03.26 bitrate= 642.1kbits/s speed=0.028x elapsed=0:01:56.53    \nframe=  100 fps=0.9 q=47.9 size=     256KiB time=00:00:03.26 bitrate= 642.1kbits/s speed=0.0279x elapsed=0:01:57.03    \nframe=  100 fps=0.9 q=47.9 size=     256KiB time=00:00:03.26 bitrate= 642.1kbits/s speed=0.0278x elapsed=0:01:57.56    \nframe=  100 fps=0.8 q=47.9 size=     256KiB time=00:00:03.26 bitrate= 642.1kbits/s speed=0.0277x elapsed=0:01:58.07    \nframe=  101 fps=0.9 q=50.0 size=     256KiB time=00:00:03.30 bitrate= 635.6kbits/s speed=0.0278x elapsed=0:01:58.62    \nframe=  103 fps=0.9 q=50.0 size=     256KiB time=00:00:03.36 bitrate= 623.0kbits/s speed=0.0283x elapsed=0:01:59.16    \nframe=  103 fps=0.9 q=50.0 size=     256KiB time=00:00:03.36 bitrate= 623.0kbits/s speed=0.0281x elapsed=0:01:59.67    \nframe=  103 fps=0.9 q=50.0 size=     256KiB time=00:00:03.36 bitrate= 623.0kbits/s speed=0.028x elapsed=0:02:00.21    \nframe=  104 fps=0.9 q=45.9 size=     256KiB time=00:00:03.40 bitrate= 616.9kbits/s speed=0.0282x elapsed=0:02:00.74    \nframe=  104 fps=0.9 q=45.9 size=     256KiB time=00:00:03.40 bitrate= 616.9kbits/s speed=0.028x elapsed=0:02:01.26    \nframe=  104 fps=0.9 q=45.9 size=     256KiB time=00:00:03.40 bitrate= 616.9kbits/s speed=0.0279x elapsed=0:02:01.78    \nframe=  105 fps=0.9 q=49.0 size=     256KiB time=00:00:03.43 bitrate= 610.9kbits/s speed=0.0281x elapsed=0:02:02.30    \nframe=  105 fps=0.9 q=49.0 size=     256KiB time=00:00:03.43 bitrate= 610.9kbits/s speed=0.028x elapsed=0:02:02.82    \nframe=  107 fps=0.9 q=50.0 size=     256KiB time=00:00:03.50 bitrate= 599.3kbits/s speed=0.0284x elapsed=0:02:03.35    \nframe=  108 fps=0.9 q=50.0 size=     256KiB time=00:00:03.53 bitrate= 593.6kbits/s speed=0.0285x elapsed=0:02:03.87    \nframe=  108 fps=0.9 q=50.0 size=     256KiB time=00:00:03.53 bitrate= 593.6kbits/s speed=0.0284x elapsed=0:02:04.40    \nframe=  109 fps=0.9 q=44.8 size=     256KiB time=00:00:03.56 bitrate= 588.1kbits/s speed=0.0286x elapsed=0:02:04.92    \nframe=  109 fps=0.9 q=44.8 size=     256KiB time=00:00:03.56 bitrate= 588.1kbits/s speed=0.0284x elapsed=0:02:05.42    \nframe=  109 fps=0.9 q=44.8 size=     256KiB time=00:00:03.56 bitrate= 588.1kbits/s speed=0.0283x elapsed=0:02:05.95    \nframe=  109 fps=0.9 q=44.8 size=     256KiB time=00:00:03.56 bitrate= 588.1kbits/s speed=0.0282x elapsed=0:02:06.46    \nframe=  110 fps=0.9 q=48.9 size=     256KiB time=00:00:03.60 bitrate= 582.6kbits/s speed=0.0283x elapsed=0:02:07.04    \nframe=  110 fps=0.9 q=48.9 size=     256KiB time=00:00:03.60 bitrate= 582.6kbits/s speed=0.0282x elapsed=0:02:07.58    \nframe=  110 fps=0.9 q=48.9 size=     256KiB time=00:00:03.60 bitrate= 582.6kbits/s speed=0.0281x elapsed=0:02:08.21    \nframe=  110 fps=0.9 q=48.9 size=     256KiB time=00:00:03.60 bitrate= 582.6kbits/s speed=0.0279x elapsed=0:02:08.86    \nframe=  110 fps=0.8 q=48.9 size=     256KiB time=00:00:03.60 bitrate= 582.6kbits/s speed=0.0278x elapsed=0:02:09.45    \nframe=  112 fps=0.9 q=50.0 size=     256KiB time=00:00:03.66 bitrate= 572.0kbits/s speed=0.0282x elapsed=0:02:09.99    \nframe=  113 fps=0.9 q=50.0 size=     256KiB time=00:00:03.70 bitrate= 566.9kbits/s speed=0.0283x elapsed=0:02:10.53    \nframe=  113 fps=0.9 q=50.0 size=     256KiB time=00:00:03.70 bitrate= 566.9kbits/s speed=0.0282x elapsed=0:02:11.04    \nframe=  113 fps=0.9 q=50.0 size=     256KiB time=00:00:03.70 bitrate= 566.9kbits/s speed=0.0281x elapsed=0:02:11.61    \nframe=  113 fps=0.9 q=50.0 size=     256KiB time=00:00:03.70 bitrate= 566.9kbits/s speed=0.028x elapsed=0:02:12.16    \nframe=  114 fps=0.9 q=45.7 size=     256KiB time=00:00:03.73 bitrate= 561.8kbits/s speed=0.0281x elapsed=0:02:12.68    \nframe=  114 fps=0.9 q=45.7 size=     256KiB time=00:00:03.73 bitrate= 561.8kbits/s speed=0.028x elapsed=0:02:13.19    \nframe=  115 fps=0.9 q=48.9 size=     256KiB time=00:00:03.76 bitrate= 556.9kbits/s speed=0.0282x elapsed=0:02:13.71    \nframe=  116 fps=0.9 q=50.0 size=     256KiB time=00:00:03.80 bitrate= 552.0kbits/s speed=0.0283x elapsed=0:02:14.24    \nframe=  118 fps=0.9 q=50.1 size=     256KiB time=00:00:03.86 bitrate= 542.5kbits/s speed=0.0287x elapsed=0:02:14.81    \nframe=  118 fps=0.9 q=50.1 size=     256KiB time=00:00:03.86 bitrate= 542.5kbits/s speed=0.0286x elapsed=0:02:15.33    \nframe=  119 fps=0.9 q=45.7 size=     256KiB time=00:00:03.90 bitrate= 537.8kbits/s speed=0.0287x elapsed=0:02:15.85    \nframe=  120 fps=0.9 q=48.6 size=     256KiB time=00:00:03.93 bitrate= 533.3kbits/s speed=0.0288x elapsed=0:02:16.36    \nframe=  120 fps=0.9 q=48.6 size=     256KiB time=00:00:03.93 bitrate= 533.3kbits/s speed=0.0287x elapsed=0:02:16.88    \nframe=  120 fps=0.9 q=48.6 size=     256KiB time=00:00:03.93 bitrate= 533.3kbits/s speed=0.0286x elapsed=0:02:17.41    \nframe=  121 fps=0.9 q=49.9 size=     256KiB time=00:00:03.96 bitrate= 528.8kbits/s speed=0.0288x elapsed=0:02:17.93    \nframe=  121 fps=0.9 q=49.9 size=     256KiB time=00:00:03.96 bitrate= 528.8kbits/s speed=0.0286x elapsed=0:02:18.47    \nframe=  123 fps=0.9 q=45.7 size=     256KiB time=00:00:04.03 bitrate= 520.0kbits/s speed=0.029x elapsed=0:02:19.01    \nframe=  123 fps=0.9 q=45.7 size=     256KiB time=00:00:04.03 bitrate= 520.0kbits/s speed=0.0289x elapsed=0:02:19.52    \nframe=  123 fps=0.9 q=45.7 size=     256KiB time=00:00:04.03 bitrate= 520.0kbits/s speed=0.0288x elapsed=0:02:20.04    \nframe=  123 fps=0.9 q=45.7 size=     256KiB time=00:00:04.03 bitrate= 520.0kbits/s speed=0.0287x elapsed=0:02:20.59    \nframe=  123 fps=0.9 q=45.7 size=     256KiB time=00:00:04.03 bitrate= 520.0kbits/s speed=0.0286x elapsed=0:02:21.13    \nframe=  124 fps=0.9 q=48.5 size=     256KiB time=00:00:04.06 bitrate= 515.8kbits/s speed=0.0287x elapsed=0:02:21.68    \nframe=  125 fps=0.9 q=49.9 size=     256KiB time=00:00:04.10 bitrate= 511.6kbits/s speed=0.0288x elapsed=0:02:22.20    \nframe=  126 fps=0.9 q=49.9 size=     256KiB time=00:00:04.13 bitrate= 507.5kbits/s speed=0.029x elapsed=0:02:22.73    \nframe=  126 fps=0.9 q=49.9 size=     256KiB time=00:00:04.13 bitrate= 507.5kbits/s speed=0.0289x elapsed=0:02:23.25    \nframe=  126 fps=0.9 q=49.9 size=     256KiB time=00:00:04.13 bitrate= 507.5kbits/s speed=0.0287x elapsed=0:02:23.77    \nframe=  126 fps=0.9 q=49.9 size=     256KiB time=00:00:04.13 bitrate= 507.5kbits/s speed=0.0286x elapsed=0:02:24.29    \nframe=  127 fps=0.9 q=45.5 size=     256KiB time=00:00:04.16 bitrate= 503.4kbits/s speed=0.0288x elapsed=0:02:24.80    \nframe=  127 fps=0.9 q=45.5 size=     256KiB time=00:00:04.16 bitrate= 503.4kbits/s speed=0.0287x elapsed=0:02:25.34    \nframe=  127 fps=0.9 q=45.5 size=     256KiB time=00:00:04.16 bitrate= 503.4kbits/s speed=0.0286x elapsed=0:02:25.86    \nframe=  128 fps=0.9 q=48.9 size=     512KiB time=00:00:04.20 bitrate= 998.7kbits/s speed=0.0287x elapsed=0:02:26.38    \nframe=  128 fps=0.9 q=48.9 size=     512KiB time=00:00:04.20 bitrate= 998.7kbits/s speed=0.0286x elapsed=0:02:26.91    \nframe=  129 fps=0.9 q=50.0 size=     512KiB time=00:00:04.23 bitrate= 990.9kbits/s speed=0.0287x elapsed=0:02:27.44    \nframe=  131 fps=0.9 q=50.0 size=     512KiB time=00:00:04.30 bitrate= 975.5kbits/s speed=0.0291x elapsed=0:02:27.96    \nframe=  131 fps=0.9 q=50.0 size=     512KiB time=00:00:04.30 bitrate= 975.5kbits/s speed=0.029x elapsed=0:02:28.49    \nframe=  131 fps=0.9 q=50.0 size=     512KiB time=00:00:04.30 bitrate= 975.5kbits/s speed=0.0289x elapsed=0:02:29.02    \nframe=  131 fps=0.9 q=50.0 size=     512KiB time=00:00:04.30 bitrate= 975.5kbits/s speed=0.0288x elapsed=0:02:29.54    \nframe=  131 fps=0.9 q=50.0 size=     512KiB time=00:00:04.30 bitrate= 975.5kbits/s speed=0.0287x elapsed=0:02:30.08    \nframe=  132 fps=0.9 q=45.7 size=     512KiB time=00:00:04.33 bitrate= 968.0kbits/s speed=0.0288x elapsed=0:02:30.60    \nframe=  132 fps=0.9 q=45.7 size=     512KiB time=00:00:04.33 bitrate= 968.0kbits/s speed=0.0287x elapsed=0:02:31.13    \nframe=  132 fps=0.9 q=45.7 size=     512KiB time=00:00:04.33 bitrate= 968.0kbits/s speed=0.0286x elapsed=0:02:31.64    \nframe=  132 fps=0.9 q=45.7 size=     512KiB time=00:00:04.33 bitrate= 968.0kbits/s speed=0.0285x elapsed=0:02:32.17    \nframe=  132 fps=0.9 q=45.7 size=     512KiB time=00:00:04.33 bitrate= 968.0kbits/s speed=0.0284x elapsed=0:02:32.70    \nframe=  133 fps=0.9 q=47.9 size=     512KiB time=00:00:04.36 bitrate= 960.6kbits/s speed=0.0285x elapsed=0:02:33.21    \nframe=  134 fps=0.9 q=49.9 size=     512KiB time=00:00:04.40 bitrate= 953.3kbits/s speed=0.0286x elapsed=0:02:33.74    \nframe=  135 fps=0.9 q=50.0 size=     512KiB time=00:00:04.43 bitrate= 946.2kbits/s speed=0.0287x elapsed=0:02:34.26    \nframe=  135 fps=0.9 q=50.0 size=     512KiB time=00:00:04.43 bitrate= 946.2kbits/s speed=0.0286x elapsed=0:02:34.78    \nframe=  136 fps=0.9 q=50.0 size=     512KiB time=00:00:04.46 bitrate= 939.1kbits/s speed=0.0288x elapsed=0:02:35.32    \nframe=  137 fps=0.9 q=46.0 size=     512KiB time=00:00:04.50 bitrate= 932.1kbits/s speed=0.0289x elapsed=0:02:35.84    \nframe=  138 fps=0.9 q=49.0 size=     512KiB time=00:00:04.53 bitrate= 925.3kbits/s speed=0.029x elapsed=0:02:36.36    \nframe=  139 fps=0.9 q=50.0 size=     512KiB time=00:00:04.56 bitrate= 918.5kbits/s speed=0.0291x elapsed=0:02:36.88    \nframe=  140 fps=0.9 q=49.9 size=     512KiB time=00:00:04.60 bitrate= 911.9kbits/s speed=0.0292x elapsed=0:02:37.39    \nframe=  141 fps=0.9 q=50.0 size=     512KiB time=00:00:04.63 bitrate= 905.3kbits/s speed=0.0293x elapsed=0:02:37.92    \nframe=  141 fps=0.9 q=50.0 size=     512KiB time=00:00:04.63 bitrate= 905.3kbits/s speed=0.0292x elapsed=0:02:38.45    \nframe=  142 fps=0.9 q=46.4 size=     512KiB time=00:00:04.66 bitrate= 898.9kbits/s speed=0.0294x elapsed=0:02:38.95    \nframe=  142 fps=0.9 q=46.4 size=     512KiB time=00:00:04.66 bitrate= 898.9kbits/s speed=0.0293x elapsed=0:02:39.48    \nframe=  142 fps=0.9 q=46.4 size=     512KiB time=00:00:04.66 bitrate= 898.9kbits/s speed=0.0292x elapsed=0:02:40.02    \nframe=  142 fps=0.9 q=46.4 size=     512KiB time=00:00:04.66 bitrate= 898.9kbits/s speed=0.0291x elapsed=0:02:40.57    \nframe=  142 fps=0.9 q=46.4 size=     512KiB time=00:00:04.66 bitrate= 898.9kbits/s speed=0.029x elapsed=0:02:41.08    \nframe=  142 fps=0.9 q=46.4 size=     512KiB time=00:00:04.66 bitrate= 898.9kbits/s speed=0.0289x elapsed=0:02:41.60    \nframe=  143 fps=0.9 q=48.5 size=     512KiB time=00:00:04.70 bitrate= 892.5kbits/s speed=0.029x elapsed=0:02:42.12    \nframe=  145 fps=0.9 q=50.1 size=     512KiB time=00:00:04.76 bitrate= 880.0kbits/s speed=0.0293x elapsed=0:02:42.63    \nframe=  146 fps=0.9 q=50.0 size=     512KiB time=00:00:04.80 bitrate= 873.9kbits/s speed=0.0294x elapsed=0:02:43.15    \nframe=  146 fps=0.9 q=50.0 size=     512KiB time=00:00:04.80 bitrate= 873.9kbits/s speed=0.0293x elapsed=0:02:43.70    \nframe=  146 fps=0.9 q=50.0 size=     512KiB time=00:00:04.80 bitrate= 873.9kbits/s speed=0.0292x elapsed=0:02:44.22    \nframe=  147 fps=0.9 q=47.8 size=     512KiB time=00:00:04.83 bitrate= 867.9kbits/s speed=0.0293x elapsed=0:02:44.75    \nframe=  147 fps=0.9 q=47.8 size=     512KiB time=00:00:04.83 bitrate= 867.9kbits/s speed=0.0292x elapsed=0:02:45.25    \nframe=  147 fps=0.9 q=47.8 size=     512KiB time=00:00:04.83 bitrate= 867.9kbits/s speed=0.0292x elapsed=0:02:45.77    \nframe=  148 fps=0.9 q=48.6 size=     512KiB time=00:00:04.86 bitrate= 861.9kbits/s speed=0.0293x elapsed=0:02:46.30    \n[mp4 @ 0000029764e5a980] Starting second pass: moving the moov atom to the beginning of the file\n[out#0/mp4 @ 0000029764e61700] video:603KiB audio:0KiB subtitle:0KiB other streams:0KiB global headers:2KiB muxing overhead: 0.828715%\nframe=  150 fps=0.9 q=50.0 Lsize=     608KiB time=00:00:04.93 bitrate=1010.2kbits/s speed=0.0296x elapsed=0:02:46.62    \nx265 [info]: frame I:      1, Avg QP:46.61  kb/s: 3736.80 \nx265 [info]: frame P:     31, Avg QP:45.78  kb/s: 2377.37 \nx265 [info]: frame B:    118, Avg QP:49.67  kb/s: 599.14  \nx265 [info]: Weighted P-Frames: Y:0.0% UV:0.0%\n\nencoded 150 frames in 166.32s (0.90 fps), 987.56 kb/s, Avg QP:48.84\n",
  "seconds": 167.5442054271698,
  "probe_out": {}
}